<svg width="24.000000" height="24.000000" viewBox="0 0 24 24" fill="none" xmlns="http://www.w3.org/2000/svg" xmlns:xlink="http://www.w3.org/1999/xlink">
	<desc>
			Created with Pixso.
	</desc>
	<defs>
		<clipPath id="clip2_749">
			<rect id="icon/user-round" rx="-0.500000" width="23.000000" height="23.000000" transform="translate(0.500000 0.500000)" fill="white" fill-opacity="0"/>
		</clipPath>
	</defs>
	<g clip-path="url(#clip2_749)">
		<path id="Vector" d="M12 13C9.23 13 7 10.76 7 8C7 5.23 9.23 3 12 3C14.76 3 17 5.23 17 8C17 10.76 14.76 13 12 13ZM20 21C20 18.87 19.15 16.84 17.65 15.34C16.15 13.84 14.12 13 12 13M12 13C9.87 13 7.84 13.84 6.34 15.34C4.84 16.84 4 18.87 4 21" stroke="#222222" stroke-opacity="1.000000" stroke-width="1.000000" stroke-linejoin="round" stroke-linecap="round"/>
	</g>
</svg>
