<svg width="149.000000" height="53.781250" viewBox="0 0 149 53.7812" fill="none" xmlns="http://www.w3.org/2000/svg" xmlns:xlink="http://www.w3.org/1999/xlink">
	<desc>
			Created with Pixso.
	</desc>
	<defs>
		<clipPath id="clip2_720">
			<rect id="logo (2) 1" rx="-0.440828" width="148.118347" height="52.899410" transform="translate(0.440828 0.440828)" fill="white" fill-opacity="0"/>
		</clipPath>
	</defs>
	<rect id="logo (2) 1" rx="-0.440828" width="148.118347" height="52.899410" transform="translate(0.440828 0.440828)" fill="#FFFFFF" fill-opacity="0"/>
	<g clip-path="url(#clip2_720)">
		<path id="Vector" d="M81.7 29.86L81.7 34.16L88.39 34.16L88.39 35.7L79.71 35.7L79.71 29.86L81.7 29.86ZM79.71 26.68L79.71 21.46L88.09 21.46L88.09 23L81.7 23L81.7 26.68L79.71 26.68Z" fill="#3E989A" fill-opacity="1.000000" fill-rule="nonzero"/>
		<path id="Vector_2" d="M91 21.66C92.23 21.51 93.66 21.36 95.24 21.36C98.1 21.36 100.15 21.97 101.53 23.15C102.91 24.33 103.72 25.97 103.72 28.27C103.72 30.63 102.96 32.52 101.47 33.8C100.04 35.13 97.64 35.85 94.63 35.85C93.2 35.85 92.02 35.8 91 35.7L91 21.66ZM93.04 34.26C93.55 34.37 94.27 34.37 95.09 34.37C99.38 34.37 101.68 32.16 101.68 28.32C101.68 24.94 99.64 22.79 95.39 22.79C94.37 22.79 93.55 22.89 93.04 23L93.04 34.26Z" fill="#3E989A" fill-opacity="1.000000" fill-rule="nonzero"/>
		<path id="Vector_3" d="M108.32 21.46L108.32 35.75L106.33 35.75L106.33 21.46L108.32 21.46Z" fill="#3E989A" fill-opacity="1.000000" fill-rule="nonzero"/>
		<path id="Vector_4" d="M128.76 31.24L127.18 35.75L125.13 35.75L130.4 21.46L132.8 21.46L138.06 35.75L135.92 35.75L134.28 31.24L128.76 31.24ZM133.87 29.81L132.34 25.71C131.98 24.79 131.78 23.92 131.52 23.1L131.47 23.1C131.21 23.97 131.01 24.84 130.7 25.66L129.17 29.81L133.87 29.81Z" fill="#3E989A" fill-opacity="1.000000" fill-rule="nonzero"/>
		<path id="Vector_5" d="M140.36 21.46L142.35 21.46L142.35 34.21L149 34.21L149 35.75L140.36 35.75L140.36 21.46Z" fill="#3E989A" fill-opacity="1.000000" fill-rule="nonzero"/>
		<path id="XMLID_00000145023229567502084250000014906035702346345096_" d="M12.77 35.39L6.59 35.39L6.59 28.78L0 28.78L0 22.59L6.59 22.59L6.59 15.98L12.77 15.98L12.77 22.59L19.36 22.59L19.36 28.78L12.77 28.78L12.77 35.39Z" fill="#3E989A" fill-opacity="1.000000" fill-rule="nonzero"/>
		<path id="XMLID_00000124136520055420399210000002259154297035173526_" d="M37.6 27.86C37.6 27.35 37.25 27.09 36.89 27.09C36.63 27.09 35.76 27.04 35.76 27.04C33.87 26.63 34.23 23.4 34.23 23.4C36.02 12.39 32.03 1.12 21.97 0.05C20.13 -0.11 14.25 -0.31 10.57 5.68L10.52 5.68C10.32 5.63 10.01 5.68 9.7 5.84L7.97 7.22C7.66 7.53 7.66 7.94 7.97 8.29L9.04 9.37C9.4 9.63 9.86 9.68 10.11 9.37L11.29 7.32C11.49 6.86 11.49 6.45 11.29 6.25L11.24 6.19C14.1 2.4 18.85 0.76 21.51 1.17C35.81 2.86 34.69 21 31.93 27.5C29.07 36.01 16.65 47.43 12.87 49.32L12.82 49.37L12.77 49.32C12.57 49.22 12.26 49.22 11.9 49.32L9.7 50.14C9.35 50.35 9.35 50.81 9.55 51.22L10.42 52.45C10.73 52.81 11.13 52.86 11.49 52.6L13.13 51.01C13.38 50.71 13.48 50.45 13.43 50.19L13.43 50.14C22.38 44.3 27.69 37.29 30.86 32.16C30.86 32.16 32.44 29.91 35.92 29.91C35.92 29.91 36.68 29.91 37.04 29.86C37.4 29.81 37.76 29.4 37.76 28.99L37.76 27.86L37.6 27.86Z" fill="#3E989A" fill-opacity="1.000000" fill-rule="nonzero"/>
		<path id="XMLID_00000116947468885976736960000006768812200677924763_" d="M37.14 29.19L45.11 29.19L50.02 48.35L59.01 13.31L66.78 38.31L72.04 22.33L74.6 29.04L86.25 29.09L86.25 27.5L76.28 27.5L71.89 14.75L66.83 30.37L59.01 5.12L50.02 40.41L46.8 27.66L37.14 27.66L37.14 29.19Z" fill="#3E989A" fill-opacity="1.000000" fill-rule="nonzero"/>
		<path id="XMLID_00000069361284589251502300000017962067927762579607_" d="M15.84 35.39L9.65 35.39L9.65 28.78L3.06 28.78L3.06 22.59L9.65 22.59L9.65 15.98L15.84 15.98L15.84 22.59L22.43 22.59L22.43 28.78L15.84 28.78L15.84 35.39Z" fill="#283D71" fill-opacity="1.000000" fill-rule="nonzero"/>
		<path id="XMLID_00000121958551245053839230000018248079141837811090_" d="M114.3 35.19C115.48 36.01 116.96 36.47 118.49 36.47C119.56 36.47 120.94 36.11 121.56 35.8C122.17 35.49 123.04 34.98 123.04 34.98L123.09 32.88C122.68 33.39 122.17 33.8 121.61 34.16C120.74 34.67 119.66 34.98 118.54 34.98C115.22 34.98 112.51 32.27 112.51 28.94C112.51 25.61 115.22 22.89 118.54 22.89C118.75 22.89 118.95 22.89 119.15 22.94L119.26 22.94L121.04 25.76C121.15 25.97 121.45 26.02 121.61 25.91L121.96 25.66L122.73 26.79C122.83 26.94 122.99 26.94 123.14 26.89L123.6 26.58C123.75 26.48 123.75 26.32 123.7 26.17L122.99 24.99L123.34 24.74C123.55 24.63 123.6 24.33 123.5 24.17L119.72 18.23C119.51 17.92 119.05 17.82 118.75 18.03L118.54 17.67C118.44 17.46 118.13 17.41 117.93 17.51L117.42 17.82C117.21 17.92 117.16 18.23 117.26 18.44L117.52 18.79C117.21 19 117.11 19.46 117.31 19.77L118.34 21.36L118.23 21.36C114.25 21.56 111.13 24.84 111.13 28.89C111.13 31.09 112.05 33.04 113.53 34.42L114.3 35.19Z" fill="#3E989A" fill-opacity="1.000000" fill-rule="nonzero"/>
		<path id="XMLID_00000109743468069936771430000003417709041372018839_" d="M119.46 19.82L122.53 24.68C122.58 24.74 122.68 24.79 122.73 24.74L122.88 24.63C122.93 24.58 122.99 24.48 122.93 24.43L119.87 19.56L119.46 19.82Z" fill="#FFFFFF" fill-opacity="1.000000" fill-rule="nonzero"/>
		<path id="XMLID_00000102503148935463087830000001077070432370551705_" d="M119.56 19.05L119.31 18.64C119.26 18.59 119.15 18.54 119.1 18.59L118.95 18.69C118.9 18.74 118.85 18.85 118.9 18.9L119.15 19.31L119.56 19.05Z" fill="#FFFFFF" fill-opacity="1.000000" fill-rule="nonzero"/>
		<path id="XMLID_00000126288115440655685180000004685533057398977725_" d="M113.53 28.94C113.53 31.75 115.78 34.01 118.59 34.01C120.64 34.01 122.37 32.83 123.19 31.09C123.24 31.04 123.24 30.99 123.29 30.93C118.34 32.32 117.98 27.66 113.69 27.76C113.58 28.07 113.53 28.53 113.53 28.94ZM116.85 32.27C116.85 31.75 117.26 31.4 117.72 31.4C118.23 31.4 118.59 31.81 118.59 32.27C118.59 32.78 118.18 33.14 117.72 33.14C117.26 33.14 116.85 32.78 116.85 32.27ZM114.4 29.29C114.4 28.94 114.66 28.68 115.01 28.68C115.37 28.68 115.63 28.94 115.63 29.29C115.63 29.65 115.37 29.91 115.01 29.91C114.66 29.91 114.4 29.65 114.4 29.29Z" fill="#283D71" fill-opacity="1.000000" fill-rule="nonzero"/>
		<path id="XMLID_00000016037268510899792520000014476389514213213598_" d="M121.56 30.22C121.92 30.22 122.22 29.92 122.22 29.55C122.22 29.18 121.92 28.89 121.56 28.89C121.19 28.89 120.89 29.18 120.89 29.55C120.89 29.92 121.19 30.22 121.56 30.22Z" fill="#283D71" fill-opacity="1.000000" fill-rule="nonzero"/>
		<path id="XMLID_00000045597102920731740260000012117093049579788946_" d="M118.9 28.48C119.1 28.48 119.26 28.32 119.26 28.12C119.26 27.92 119.1 27.76 118.9 27.76C118.7 27.76 118.54 27.92 118.54 28.12C118.54 28.32 118.7 28.48 118.9 28.48Z" fill="#283D71" fill-opacity="1.000000" fill-rule="nonzero"/>
		<path id="XMLID_00000093163911294952925650000000694996686078635682_" d="M118.59 26.02C118.82 26.02 119 25.83 119 25.61C119 25.38 118.82 25.2 118.59 25.2C118.37 25.2 118.18 25.38 118.18 25.61C118.18 25.83 118.37 26.02 118.59 26.02Z" fill="#283D71" fill-opacity="1.000000" fill-rule="nonzero"/>
		<path id="XMLID_00000064331423206314201220000003194026828085874322_" d="M116.19 26.94C116.56 26.94 116.85 26.64 116.85 26.27C116.85 25.91 116.56 25.61 116.19 25.61C115.82 25.61 115.53 25.91 115.53 26.27C115.53 26.64 115.82 26.94 116.19 26.94Z" fill="#283D71" fill-opacity="1.000000" fill-rule="nonzero"/>
		<path id="Vector_6" d="M69.59 39.85L67.39 39.85L67.39 39.13L72.71 39.13L72.71 39.85L70.51 39.85L70.51 45.69L69.59 45.69L69.59 39.85Z" fill="#2D2D2D" fill-opacity="1.000000" fill-rule="nonzero"/>
		<path id="Vector_7" d="M78.33 42.61L75.52 42.61L75.52 44.97L78.63 44.97L78.63 45.69L74.6 45.69L74.6 39.13L78.48 39.13L78.48 39.85L75.52 39.85L75.52 41.95L78.33 41.95L78.33 42.61Z" fill="#2D2D2D" fill-opacity="1.000000" fill-rule="nonzero"/>
		<path id="Vector_8" d="M85.94 45.48C85.58 45.64 84.92 45.79 84.05 45.79C82.01 45.79 80.47 44.61 80.47 42.46C80.47 40.41 82.01 39.03 84.25 39.03C85.17 39.03 85.74 39.18 85.94 39.33L85.74 40.05C85.38 39.9 84.87 39.8 84.31 39.8C82.62 39.8 81.5 40.77 81.5 42.51C81.5 44.1 82.52 45.17 84.25 45.17C84.82 45.17 85.38 45.07 85.79 44.92L85.94 45.48Z" fill="#2D2D2D" fill-opacity="1.000000" fill-rule="nonzero"/>
		<path id="Vector_9" d="M89.11 39.13L89.11 41.9L92.58 41.9L92.58 39.13L93.5 39.13L93.5 45.69L92.58 45.69L92.58 42.61L89.11 42.61L89.11 45.69L88.19 45.69L88.19 39.13L89.11 39.13Z" fill="#2D2D2D" fill-opacity="1.000000" fill-rule="nonzero"/>
		<path id="Vector_10" d="M96.21 45.69L96.21 39.13L97.23 39.13L99.53 42.46C100.04 43.23 100.5 43.94 100.81 44.61C100.71 43.74 100.71 42.92 100.71 41.9L100.71 39.13L101.58 39.13L101.58 45.69L100.66 45.69L98.36 42.36C97.85 41.64 97.39 40.87 97.03 40.15L96.98 40.15C97.03 40.97 97.03 41.79 97.03 42.87L97.03 45.69L96.21 45.69Z" fill="#2D2D2D" fill-opacity="1.000000" fill-rule="nonzero"/>
		<path id="Vector_11" d="M110.52 42.36C110.52 44.61 109.04 45.84 107.2 45.84C105.31 45.84 103.98 44.51 103.98 42.51C103.98 40.41 105.41 39.08 107.3 39.08C109.24 39.03 110.52 40.41 110.52 42.36ZM104.9 42.46C104.9 43.84 105.72 45.12 107.2 45.12C108.68 45.12 109.5 43.89 109.5 42.41C109.5 41.13 108.73 39.74 107.2 39.74C105.66 39.69 104.9 41.02 104.9 42.46Z" fill="#2D2D2D" fill-opacity="1.000000" fill-rule="nonzero"/>
		<path id="Vector_12" d="M112.77 39.13L113.69 39.13L113.69 44.97L116.75 44.97L116.75 45.69L112.77 45.69L112.77 39.13Z" fill="#2D2D2D" fill-opacity="1.000000" fill-rule="nonzero"/>
		<path id="Vector_13" d="M124.62 42.36C124.62 44.61 123.14 45.84 121.3 45.84C119.41 45.84 118.08 44.51 118.08 42.51C118.08 40.41 119.51 39.08 121.4 39.08C123.34 39.03 124.62 40.41 124.62 42.36ZM119.05 42.46C119.05 43.84 119.87 45.12 121.35 45.12C122.83 45.12 123.65 43.89 123.65 42.41C123.65 41.13 122.88 39.74 121.35 39.74C119.82 39.69 119.05 41.02 119.05 42.46Z" fill="#2D2D2D" fill-opacity="1.000000" fill-rule="nonzero"/>
		<path id="Vector_14" d="M132.39 45.43C131.98 45.58 131.16 45.79 130.19 45.79C129.12 45.79 128.2 45.53 127.48 44.92C126.87 44.35 126.46 43.48 126.46 42.46C126.46 40.51 127.94 39.08 130.34 39.08C131.16 39.08 131.83 39.23 132.13 39.39L131.93 40.1C131.52 39.95 131.06 39.8 130.34 39.8C128.61 39.8 127.43 40.77 127.43 42.46C127.43 44.15 128.56 45.12 130.19 45.12C130.8 45.12 131.21 45.02 131.42 44.97L131.42 43.02L129.94 43.02L129.94 42.36L132.28 42.36L132.28 45.43L132.39 45.43Z" fill="#2D2D2D" fill-opacity="1.000000" fill-rule="nonzero"/>
		<path id="Vector_15" d="M135.81 39.13L135.81 45.69L134.89 45.69L134.89 39.13L135.81 39.13Z" fill="#2D2D2D" fill-opacity="1.000000" fill-rule="nonzero"/>
		<path id="Vector_16" d="M142.25 42.61L139.44 42.61L139.44 44.97L142.56 44.97L142.56 45.69L138.52 45.69L138.52 39.13L142.4 39.13L142.4 39.85L139.44 39.85L139.44 41.95L142.25 41.95L142.25 42.61Z" fill="#2D2D2D" fill-opacity="1.000000" fill-rule="nonzero"/>
		<path id="Vector_17" d="M144.7 44.66C145.11 44.92 145.73 45.07 146.39 45.07C147.36 45.07 147.87 44.61 147.87 43.94C147.87 43.33 147.46 42.97 146.49 42.66C145.32 42.31 144.6 41.74 144.6 40.82C144.6 39.8 145.52 39.03 146.95 39.03C147.67 39.03 148.23 39.18 148.53 39.33L148.28 40.05C148.02 39.95 147.56 39.74 146.9 39.74C145.93 39.74 145.52 40.26 145.52 40.72C145.52 41.33 145.98 41.64 146.95 42C148.18 42.41 148.79 42.97 148.79 43.94C148.79 44.97 147.97 45.84 146.29 45.84C145.57 45.84 144.86 45.64 144.45 45.43L144.7 44.66Z" fill="#2D2D2D" fill-opacity="1.000000" fill-rule="nonzero"/>
	</g>
</svg>
